<svg xmlns="http://www.w3.org/2000/svg" viewBox="0 0 100 100" width="100" height="100">
  <!-- Background Circle -->
  <circle cx="50" cy="50" r="48" fill="#2563eb" stroke="#1d4ed8" stroke-width="2"/>
  
  <!-- Compass Design -->
  <!-- Outer Ring -->
  <circle cx="50" cy="50" r="35" fill="none" stroke="#ffffff" stroke-width="2"/>
  
  <!-- Inner Circle -->
  <circle cx="50" cy="50" r="8" fill="#ffffff"/>
  
  <!-- Compass Points -->
  <!-- North -->
  <path d="M 50 15 L 45 35 L 50 32 L 55 35 Z" fill="#ff4444"/>
  <!-- South -->
  <path d="M 50 85 L 45 65 L 50 68 L 55 65 Z" fill="#ffffff"/>
  <!-- East -->
  <path d="M 85 50 L 65 45 L 68 50 L 65 55 Z" fill="#ffffff"/>
  <!-- West -->
  <path d="M 15 50 L 35 45 L 32 50 L 35 55 Z" fill="#ffffff"/>
  
  <!-- Direction Letters -->
  <text x="50" y="12" text-anchor="middle" fill="#ffffff" font-size="10" font-weight="bold" font-family="Arial">N</text>
  
  <!-- Center Star -->
  <circle cx="50" cy="50" r="5" fill="#ffd700"/>
  
  <!-- Decorative Lines -->
  <line x1="50" y1="23" x2="50" y2="42" stroke="#ffffff" stroke-width="1.5" opacity="0.7"/>
  <line x1="50" y1="58" x2="50" y2="77" stroke="#ffffff" stroke-width="1.5" opacity="0.7"/>
  <line x1="23" y1="50" x2="42" y2="50" stroke="#ffffff" stroke-width="1.5" opacity="0.7"/>
  <line x1="58" y1="50" x2="77" y2="50" stroke="#ffffff" stroke-width="1.5" opacity="0.7"/>
</svg>
